<mxfile host="65bd71144e">
    <diagram id="2S4RD5YlSAE2ZXn4lp_v" name="Page-1">
        <mxGraphModel dx="627" dy="1189" grid="1" gridSize="10" guides="1" tooltips="1" connect="1" arrows="1" fold="1" page="1" pageScale="1" pageWidth="827" pageHeight="1169" math="0" shadow="0">
            <root>
                <mxCell id="0"/>
                <mxCell id="1" parent="0"/>
                <mxCell id="4" style="edgeStyle=none;html=1;entryX=0.5;entryY=0;entryDx=0;entryDy=0;" edge="1" parent="1" source="2" target="5">
                    <mxGeometry relative="1" as="geometry">
                        <mxPoint x="260" y="420" as="targetPoint"/>
                    </mxGeometry>
                </mxCell>
                <mxCell id="2" value="udstate" style="rounded=0;whiteSpace=wrap;html=1;fontSize=18;" vertex="1" parent="1">
                    <mxGeometry x="200" y="280" width="120" height="60" as="geometry"/>
                </mxCell>
                <mxCell id="5" value="udpos" style="rounded=0;whiteSpace=wrap;html=1;fontSize=18;" vertex="1" parent="1">
                    <mxGeometry x="200" y="400" width="120" height="60" as="geometry"/>
                </mxCell>
                <mxCell id="6" value="udbias" style="rounded=0;whiteSpace=wrap;html=1;fontSize=18;" vertex="1" parent="1">
                    <mxGeometry x="200" y="525" width="120" height="60" as="geometry"/>
                </mxCell>
                <mxCell id="7" value="更新位置、速度、加速度" style="ellipse;whiteSpace=wrap;html=1;fontSize=18;" vertex="1" parent="1">
                    <mxGeometry x="370" y="370" width="230" height="90" as="geometry"/>
                </mxCell>
                <mxCell id="8" value="更新位置、速度、加速度" style="ellipse;whiteSpace=wrap;html=1;fontSize=18;" vertex="1" parent="1">
                    <mxGeometry x="370" y="500" width="230" height="90" as="geometry"/>
                </mxCell>
            </root>
        </mxGraphModel>
    </diagram>
</mxfile>